<svg xmlns="http://www.w3.org/2000/svg" width="512" height="512" viewBox="0 0 512 512">
  <defs>
    <linearGradient id="bg" x1="0" y1="0" x2="1" y2="1">
      <stop offset="0%" stop-color="#4D0910"/>
      <stop offset="55%" stop-color="#8F101D"/>
      <stop offset="100%" stop-color="#B31224"/>
    </linearGradient>
  </defs>
  <rect width="512" height="512" rx="96" fill="url(#bg)"/>
  <path d="M256 52 404 132 404 380 256 460 108 380 108 132Z" fill="#681019" opacity="0.95"/>
  <path d="M256 96 360 152 360 360 256 416 152 360 152 152Z" fill="#A31621"/>
  <path d="M256 136 330 176 330 336 256 376 182 336 182 176Z" fill="#E63946"/>
  <path d="M192 152h132L250 238h88L220 360h-28l54-92h-72z" fill="#FFF3F3"/>
  <path d="M256 196 284 212 284 300 256 316 228 300 228 212Z" fill="#5C0B12" opacity="0.9"/>
  <circle cx="256" cy="256" r="18" fill="#FFF3F3" opacity="0.9"/>
</svg>
